<svg width="543" height="199" viewBox="0 0 543 199" fill="none" xmlns="http://www.w3.org/2000/svg">
<g clip-path="url(#clip0_229_197)">
<g clip-path="url(#clip1_229_197)">
<path d="M120.207 196.141C110.11 187.966 117.039 154.641 133.917 130.21C140.648 120.471 144.775 112.263 144.775 108.626C144.775 104.951 143.906 103.254 142.45 104.078C141.17 104.804 138.66 106.214 136.871 107.213C134.966 108.277 133.616 107.867 133.616 106.224C133.616 104.223 132.329 104.235 129.11 106.276C126.303 108.053 121.916 108.352 117.486 107.074C113.573 105.943 107.021 104.928 102.929 104.814C96.8997 104.644 95.3858 103.597 94.9432 99.2972C94.1695 91.7942 100.723 84.596 108.65 84.2422C114.767 83.971 115.583 84.7717 117.527 92.9513C119.827 102.634 125.472 106.333 128.844 100.366C130.013 98.2951 134.92 96.6937 140.811 96.4561C149.186 96.1204 150.944 96.8435 151.717 100.95C152.418 104.672 153.813 105.529 157.542 104.522C161.926 103.337 162.022 103.455 158.45 105.656C152.502 109.321 151.745 112.314 150.157 138.447C147.464 182.739 134.499 207.714 120.207 196.141ZM133.043 190.479C138.37 182.323 142.731 164.522 144.589 143.344C146.841 117.679 145.13 115.633 135.664 132.672C123.255 155.008 117.841 179.151 122.522 191.293C125.055 197.866 128.388 197.61 133.043 190.479ZM109.055 95.4566C112.182 88.5064 110.309 84.4023 105.607 87.8968C101.616 90.8644 100.643 100.728 104.343 100.728C105.63 100.728 107.75 98.3545 109.055 95.4566ZM434.731 156.717C422.01 135.071 421.217 128.304 431.058 125.303C435.514 123.945 436.762 122.191 436.762 117.286C436.762 113.833 435.123 109.06 433.12 106.681C429.508 102.384 429.508 102.324 433.12 98.8116C436.817 95.2138 437.868 86.4815 435.281 80.833C434.5 79.1257 428.445 76.7987 421.827 75.6648C414.864 74.4716 410.185 72.5164 410.724 71.0236C411.234 69.6031 413.326 68.805 415.374 69.2441C431.158 72.6404 434.911 72.6611 435.605 69.3474C436.008 67.4284 437.262 61.1083 438.395 55.3023C440.745 43.233 451.915 25.8277 457.309 25.8277C460.301 25.8277 460.939 27.6331 460.939 36.1304C460.939 41.797 459.328 52.3269 457.355 59.5303L453.773 72.6249L458.521 71.8268C462.209 71.207 463.991 68.4563 466.498 59.5225C470.264 46.0869 475.259 41.3992 473.175 53.2567C469.585 73.6503 465.743 71.3103 505.736 73.0846C525.398 73.955 542.155 75.5925 542.969 76.7238C543.786 77.855 528.268 78.4387 508.483 78.0281C468.89 77.2016 466.52 78.0332 466.52 92.7679C466.52 105.431 475.139 111.932 483.595 105.648C486.561 103.443 487.231 103.554 486.606 106.152C485.566 110.486 476.267 113.9 470.748 111.976C464.536 109.809 460.943 101.224 460.943 88.5348C460.943 78.7177 460.465 77.4883 456.65 77.4883C453.662 77.4883 450.519 81.1119 446.299 89.431C441.203 99.4676 440.42 102.882 441.383 110.816L442.531 120.256L455.921 119.717L469.31 119.179L456.291 122.258L443.273 125.334L443.929 145.317C444.681 168.131 442.802 170.455 434.731 156.717ZM437.714 137.06C436.384 126.132 436.075 125.763 430.714 128.712C427.738 130.347 427.874 131.357 432.276 140.353C434.926 145.772 437.52 149.61 438.045 148.886C438.566 148.158 438.419 142.84 437.714 137.06ZM446.062 82.6486C447.651 78.5265 447.478 77.4831 445.198 77.4831C443.583 77.4831 442.343 79.7275 442.343 82.6486C442.343 85.4897 442.732 87.8142 443.208 87.8142C443.682 87.8142 444.967 85.4897 446.062 82.6486ZM453.424 54.6049C457.591 35.1644 457.991 30.9932 455.687 30.9932C452.516 30.9932 446.349 42.9825 444.392 52.9468C441.437 68.0069 441.79 72.3176 445.984 72.3176C448.876 72.3176 450.405 68.6707 453.424 54.6049ZM310.314 125.807C300.858 119.164 304.227 106.805 314.744 109.543C322.222 111.493 324.154 118.702 317.271 118.97L313.087 119.133L317.292 121.478C322.525 124.399 330.755 120.437 330.755 114.993C330.755 108.884 324.926 102.182 310.397 91.5799C293.35 79.1412 286.743 70.507 285.13 58.5721C283.192 44.2299 290.15 26.6645 301.617 16.943C318.999 2.20569 344.568 8.06341 352.187 28.5293C356.801 40.924 355.405 59.4011 349.855 59.4011C347.534 59.4011 347.454 58.7012 349.401 55.4443C351.268 52.3218 351.302 49.3438 349.569 41.3062C344.562 18.0949 323.44 8.77367 305.097 21.6824C291.591 31.1869 286.91 45.059 291.985 60.5324C294.431 67.9888 297.338 70.9177 315.181 83.8935C322.213 89.0074 329.431 95.5961 331.22 98.5327C341.702 115.749 325.7 136.618 310.314 125.807ZM41.831 112.996C38.9874 80.1253 41.4051 48.8247 46.4489 53.156C47.9311 54.4293 48.1897 62.4462 47.3137 80.0994C46.4563 97.3833 46.7558 107.327 48.2696 111.945C49.9955 117.201 49.9602 119.513 48.1115 122.607C44.245 129.074 43.0659 127.269 41.831 112.996ZM235.905 108.146C235.905 100.098 235.875 100.075 228.001 101.759C223.654 102.686 214.882 106.012 208.51 109.148C197.362 114.631 196.799 114.672 193.632 110.207C190.479 105.762 190.561 105.302 195.558 99.2713C201.469 92.1403 208.302 91.1175 211.728 96.8513C213.001 98.9821 216.87 100.725 220.325 100.725C225.745 100.725 226.606 99.8602 226.606 94.4209C226.606 86.9102 229.885 83.2143 231.467 88.9377C232.081 91.1589 234.168 92.9746 236.104 92.9746C238.784 92.9746 239.625 94.8445 239.625 100.803C239.625 105.367 240.785 109.251 242.403 110.111C246.067 112.064 244.101 116.217 239.515 116.217C236.71 116.225 235.905 114.422 235.905 108.146ZM207.02 106.023C208.209 103.355 200.885 96.8461 199.248 99.1164C198.7 99.8809 198.744 102.298 199.351 104.491C200.571 108.905 205.317 109.85 207.02 106.023ZM171.385 108.451C157.648 100.767 155.05 57.3943 166.341 24.247C170.966 10.6668 178.305 0 183.018 0C184.34 0 186.814 1.93191 188.513 4.28998C194.519 12.6297 186.708 49.9094 173.674 75.1018C170.053 82.0985 167.092 89.0384 167.092 90.5183C167.092 96.3812 176.313 105.891 181.997 105.891C185.372 105.891 187.293 106.963 186.62 108.474C185.231 111.601 176.99 111.586 171.385 108.451ZM177.777 54.7366C183.886 36.3886 187.321 8.95963 184.069 4.5276C177.974 -3.77343 165.154 38.974 165.288 67.152L165.357 81.3573L169.287 74.9003C171.446 71.349 175.268 62.2757 177.777 54.7366ZM356.792 103.311C352.903 97.9102 351.784 90.3969 354.867 90.3969C355.853 90.3969 357.556 92.7214 358.652 95.5625C361.211 102.2 363.882 102.087 369.227 95.1131L373.53 89.4981L378.022 95.3584L382.511 101.219L384.566 95.8853C386.129 91.8304 387.84 90.8851 391.699 91.9466C395.751 93.0598 397.153 92.1351 398.636 87.3674C401.217 79.0818 406.793 77.8137 405.725 85.7583C404.457 95.1906 409.25 101.498 419.328 103.672C427.736 105.483 427.541 105.558 416.633 104.698C409.3 104.119 403.64 102.226 401.606 99.6691C397.178 94.1032 395.372 94.4777 390.267 102.025C385.197 109.52 383.348 109.936 379.069 104.558C376.281 101.056 375.371 101.053 370.553 104.543C363.446 109.688 361.241 109.489 356.792 103.311ZM0.539697 54.0135C-1.50422 49.4187 1.49006 47.6211 23.0061 40.5288C50.4568 31.4814 75.3837 26.166 94.5601 25.2724C117.482 24.2031 116.692 29.317 93.6302 31.298C72.0044 33.155 40.5924 41.0996 18.3696 50.3382C0.137981 57.916 2.09821 57.5131 0.539697 54.0135ZM408.866 39.0566C408.866 34.5316 413.776 26.4398 415.16 28.6868C415.502 29.2447 416.335 32.8967 417.009 36.8045C418.102 43.1245 417.721 43.9071 413.551 43.9071C410.209 43.9071 408.866 42.5176 408.866 39.0566Z" fill="white"/>
</g>
</g>
<defs>
<clipPath id="clip0_229_197">
<rect width="543" height="199" fill="white"/>
</clipPath>
<clipPath id="clip1_229_197">
<rect width="543" height="198.962" fill="white"/>
</clipPath>
</defs>
</svg>
